<svg xmlns="http://www.w3.org/2000/svg" viewBox="0 0 1200 700" fill="none">
  <rect width="1200" height="700" fill="#0c1117"/>
  <rect x="32" y="32" width="1136" height="636" rx="20" fill="#141a22" stroke="#334155" stroke-width="2"/>
  <rect x="64" y="72" width="1072" height="64" rx="10" fill="#1e293b"/>
  <rect x="88" y="92" width="280" height="24" rx="6" fill="#64748b"/>
  <rect x="64" y="160" width="250" height="280" rx="12" fill="#1e293b"/>
  <rect x="334" y="160" width="250" height="280" rx="12" fill="#1e293b"/>
  <rect x="604" y="160" width="250" height="280" rx="12" fill="#1e293b"/>
  <rect x="874" y="160" width="262" height="280" rx="12" fill="#1e293b"/>
  <rect x="88" y="190" width="200" height="140" rx="8" fill="#334155"/>
  <rect x="358" y="190" width="200" height="140" rx="8" fill="#334155"/>
  <rect x="628" y="190" width="200" height="140" rx="8" fill="#334155"/>
  <rect x="898" y="190" width="200" height="140" rx="8" fill="#334155"/>
  <rect x="64" y="460" width="1072" height="184" rx="12" fill="#0f172a" stroke="#475569"/>
  <text x="600" y="540" text-anchor="middle" fill="#e8eef4" font-family="system-ui,sans-serif" font-size="40" font-weight="700">E-commerce and EdTech</text>
  <text x="600" y="588" text-anchor="middle" fill="#94a3b8" font-family="system-ui,sans-serif" font-size="24">Storefront Ę Payments Ę Learning UX</text>
  <rect x="88" y="340" width="80" height="28" rx="14" fill="#9fb0c2" opacity="0.5"/>
</svg>
