<svg xmlns="http://www.w3.org/2000/svg" viewBox="0 0 1200 700" fill="none">
  <rect width="1200" height="700" fill="#0c1117"/>
  <rect x="32" y="32" width="1136" height="636" rx="20" fill="#141a22" stroke="#334155" stroke-width="2"/>
  <rect x="64" y="72" width="220" height="572" rx="12" fill="#1e293b"/>
  <rect x="88" y="100" width="172" height="12" rx="4" fill="#64748b"/>
  <rect x="88" y="130" width="140" height="8" rx="3" fill="#475569"/>
  <rect x="88" y="160" width="160" height="8" rx="3" fill="#475569"/>
  <rect x="88" y="200" width="172" height="36" rx="8" fill="#334155"/>
  <rect x="308" y="72" width="828" height="48" rx="10" fill="#1e293b"/>
  <rect x="332" y="88" width="200" height="16" rx="4" fill="#94a3b8"/>
  <rect x="308" y="140" width="400" height="200" rx="12" fill="#111820"/>
  <rect x="728" y="140" width="408" height="200" rx="12" fill="#111820"/>
  <rect x="308" y="360" width="828" height="284" rx="12" fill="#0f172a" stroke="#334155"/>
  <text x="600" y="430" text-anchor="middle" fill="#e8eef4" font-family="system-ui,sans-serif" font-size="42" font-weight="700">Educational CRM</text>
  <text x="600" y="480" text-anchor="middle" fill="#94a3b8" font-family="system-ui,sans-serif" font-size="24">Leads · Students · Workflows</text>
  <circle cx="380" cy="200" r="24" fill="#3b82f6" opacity="0.6"/>
  <circle cx="900" cy="200" r="24" fill="#22c55e" opacity="0.6"/>
</svg>
