<svg xmlns="http://www.w3.org/2000/svg" viewBox="0 0 1200 700" fill="none">
  <rect width="1200" height="700" fill="#0c1117"/>
  <rect x="32" y="32" width="1136" height="636" rx="20" fill="#141a22" stroke="#334155" stroke-width="2"/>
  <rect x="64" y="72" width="1072" height="52" rx="10" fill="#1e293b"/>
  <circle cx="96" cy="98" r="6" fill="#ef4444"/>
  <circle cx="118" cy="98" r="6" fill="#eab308"/>
  <circle cx="140" cy="98" r="6" fill="#22c55e"/>
  <rect x="64" y="148" width="320" height="240" rx="12" fill="#1e293b"/>
  <rect x="408" y="148" width="320" height="240" rx="12" fill="#1e293b"/>
  <rect x="752" y="148" width="384" height="240" rx="12" fill="#1e293b"/>
  <rect x="88" y="180" width="120" height="8" rx="3" fill="#64748b"/>
  <rect x="88" y="200" width="200" height="60" rx="6" fill="#334155"/>
  <rect x="432" y="180" width="120" height="8" rx="3" fill="#64748b"/>
  <rect x="432" y="200" width="200" height="60" rx="6" fill="#334155"/>
  <rect x="776" y="180" width="120" height="8" rx="3" fill="#64748b"/>
  <rect x="776" y="200" width="280" height="60" rx="6" fill="#334155"/>
  <rect x="64" y="408" width="1072" height="236" rx="12" fill="#0f172a" stroke="#475569"/>
  <text x="600" y="500" text-anchor="middle" fill="#e8eef4" font-family="system-ui,sans-serif" font-size="42" font-weight="700">Enterprise Applications</text>
  <text x="600" y="548" text-anchor="middle" fill="#94a3b8" font-family="system-ui,sans-serif" font-size="24">Auth · RBAC · High-volume APIs</text>
</svg>
