<svg xmlns="http://www.w3.org/2000/svg" viewBox="0 0 1200 700" fill="none">
  <rect width="1200" height="700" fill="#0c1117"/>
  <rect x="32" y="32" width="1136" height="636" rx="20" fill="#141a22" stroke="#334155" stroke-width="2"/>
  <rect x="64" y="72" width="520" height="360" rx="12" fill="#1e293b"/>
  <path d="M120 280 L280 160 L440 280 L360 400 L200 400 Z" fill="#334155" stroke="#64748b" stroke-width="2"/>
  <circle cx="280" cy="260" r="40" fill="#3b82f6" opacity="0.4"/>
  <rect x="608" y="72" width="528" height="160" rx="12" fill="#1e293b"/>
  <rect x="632" y="100" width="200" height="16" rx="4" fill="#94a3b8"/>
  <rect x="632" y="130" width="320" height="10" rx="3" fill="#475569"/>
  <rect x="608" y="252" width="528" height="180" rx="12" fill="#1e293b"/>
  <rect x="632" y="280" width="120" height="100" rx="8" fill="#334155"/>
  <rect x="772" y="280" width="120" height="100" rx="8" fill="#334155"/>
  <rect x="912" y="280" width="200" height="100" rx="8" fill="#334155"/>
  <rect x="64" y="452" width="1072" height="192" rx="12" fill="#0f172a" stroke="#475569"/>
  <text x="600" y="530" text-anchor="middle" fill="#e8eef4" font-family="system-ui,sans-serif" font-size="40" font-weight="700">Travel and Property Apps</text>
  <text x="600" y="578" text-anchor="middle" fill="#94a3b8" font-family="system-ui,sans-serif" font-size="24">Bookings · Listings · Live sync</text>
</svg>
